HIERARCHY
ROOT pelvis
{
  OFFSET 0 100 0
  CHANNELS 6 Xposition Yposition Zposition Zrotation Xrotation Yrotation
  JOINT pelvis_right_femur
  {
    OFFSET -10.78128 -3.44521 -0.5502486
    CHANNELS 3 Zrotation Xrotation Yrotation
    JOINT right_femur_tibia
    {
      OFFSET -0.8047443 -44.0398 -0.1307829
      CHANNELS 3 Zrotation Xrotation Yrotation
      JOINT right_tibia_foot
      {
        OFFSET 3.006224 -47.83518 -5
        CHANNELS 3 Zrotation Xrotation Yrotation
        End Site
        {
          OFFSET 0 -5 15
        }
      }
    }
  }
  JOINT pelvis_left_femur
  {
    OFFSET 10.78128 -3.44521 -0.5502486
    CHANNELS 3 Zrotation Xrotation Yrotation
    JOINT left_femur_tibia
    {
      OFFSET 0.8047443 -44.0398 -0.1307829
      CHANNELS 3 Zrotation Xrotation Yrotation
      JOINT left_tibia_foot
      {
        OFFSET -4.370144 -48.10324 -4.275266
        CHANNELS 3 Zrotation Xrotation Yrotation
        End Site
        {
          OFFSET 0 -5 15
        }
      }
    }
  }
  JOINT pelvis_spine1
  {
    OFFSET 0 6.468898 -3.129235
    CHANNELS 3 Zrotation Xrotation Yrotation
    JOINT spine1
    {
      OFFSET 0 23.15396 4.99043
      CHANNELS 3 Zrotation Xrotation Yrotation
      JOINT spine2
      {
        OFFSET 0 20.79997 -5.064912
        CHANNELS 3 Zrotation Xrotation Yrotation
        JOINT neck
        {
          OFFSET 0 14.38658 9.616178
          CHANNELS 3 Zrotation Xrotation Yrotation
          End Site
          {
            OFFSET 0 20 0
          }
        }
      }
      JOINT right_manubrium
      {
        OFFSET -5.722621 16.35077 3.967754
        CHANNELS 3 Zrotation Xrotation Yrotation
        JOINT right_clavicle
        {
          OFFSET -13.16364 1.694482 -4.693211
          CHANNELS 3 Zrotation Xrotation Yrotation
          JOINT right_humerus
          {
            OFFSET -28.5034 -0.3100689 -2.792744
            CHANNELS 3 Zrotation Xrotation Yrotation
            JOINT right_radius
            {
              OFFSET -25.15693 0.02248979 -1.271978
              CHANNELS 3 Zrotation Xrotation Yrotation
              End Site
              {
                OFFSET -15 0 0
              }
            }
          }
        }
      }
      JOINT left_manubrium
      {
        OFFSET 5.722621 16.35077 3.967754
        CHANNELS 3 Zrotation Xrotation Yrotation
        JOINT left_clavicle
        {
          OFFSET 13.16364 1.694482 -4.693211
          CHANNELS 3 Zrotation Xrotation Yrotation
          JOINT left_humerus
          {
            OFFSET 29.39168 -1.063119 -2.237045
            CHANNELS 3 Zrotation Xrotation Yrotation
            JOINT left_radius
            {
              OFFSET 24.59957 -0.9528479 0.9047498
              CHANNELS 3 Zrotation Xrotation Yrotation
              End Site
              {
                OFFSET 15 -0 -0
              }
            }
          }
        }
      }
    }
  }
}
MOTION
Frames: 21
Frame Time: 0.0416666666667
0 103.5113 0 1.253939 -1.83626 0.07498257 5.88151 -14.63594 9.021767 -0 38.52469 -0 -4.883192 -19.24426 -3.689629 -7.362715 10.42838 -21.42514 -0 6.705293 -0 19.71327 -9.287475 27.6019 -1.934084 -1.85403 4.704155 2.625014 10.24566 -7.25462 1.013364 21.20292 6.600698 3.331658 -24.44754 8.514506 5.366508 -18.81447 11.55591 86.33295 35.82624 -18.75106 -0 0 13.91551 -8.421292 7.8772 5.373496 6.231573 -20.78448 -2.458434 -91.42199 21.01431 20.18835 0 0 -17.0543 12.57744 12.10572 -1.15345
0.5405485 103.9721 1.487772 1.126106 -0.484247 0.1740201 6.505749 -16.91972 9.494722 -0 38.15241 -0 -4.175072 -18.74823 -3.172267 -7.688067 10.2969 -21.6837 -0 7.170696 -0 19.99353 -10.12005 27.49418 -1.945734 -1.917742 4.612794 2.749651 10.26197 -7.443007 1.078091 21.03482 6.650762 3.173143 -24.7765 8.861507 5.29742 -18.60265 11.53749 86.9286 36.17934 -19.54065 -0 0 13.36389 -7.929474 8.027086 5.066915 6.39222 -20.95076 -2.351063 -90.5186 20.5943 19.02672 0 0 -18.76469 13.53493 11.6395 -2.252236
1.01564 104.1412 3.258953 1.044114 0.03457061 0.2862596 6.230602 -19.62981 8.731715 -0 34.41577 -0 -4.228648 -16.22528 -2.722511 -7.657913 11.22479 -21.42571 -0 7.155719 -0 17.28124 -13.01162 26.97806 -1.898858 -1.978405 4.587273 2.889388 10.23948 -7.620252 1.062866 20.94622 6.642942 3.111269 -25.16353 8.934399 5.283353 -18.67025 11.52396 87.31625 36.14551 -20.17895 -0 0 13.24285 -7.313609 7.733994 4.818615 6.355656 -21.02647 -2.290881 -90.62972 21.07082 19.18594 0 0 -19.23555 13.26435 11.56511 -1.770014
1.458346 104.1762 5.189928 0.9001619 0.8480892 0.4338553 6.286737 -22.07212 8.4231 -0 31.95271 -0 -4.072767 -14.6518 -2.331765 -7.674311 11.63593 -21.28203 -0 7.150016 -0 15.57623 -15.0259 26.40326 -1.859828 -2.041126 4.565333 3.012299 10.23087 -7.783053 1.058406 20.84988 6.636908 3.047761 -25.50715 9.02611 5.259181 -18.7148 11.51056 87.69485 36.1277 -20.78456 -0 0 13.11232 -6.739724 7.485634 4.560284 6.357719 -21.11603 -2.236643 -90.6234 21.36828 19.18956 0 0 -19.80698 13.201 11.44175 -1.573068
1.866668 104.0187 7.420404 0.7052045 1.593144 0.6386428 6.335949 -24.81934 7.546725 -0 28.35622 -0 -4.379232 -12.10802 -1.798169 -7.605194 12.00131 -20.58153 -0 7.46982 -0 13.9597 -16.92809 25.33644 -1.832464 -2.07913 4.517133 3.128817 10.19943 -7.930371 1.059572 20.7809 6.644195 2.975111 -25.82305 9.135222 5.238352 -18.706 11.49607 88.05949 36.17171 -21.332 -0 0 12.89754 -6.291667 7.342388 4.395115 6.332569 -21.17352 -2.171727 -90.56452 21.71596 19.11906 0 0 -20.3797 13.05733 11.35095 -1.263991
2.247801 103.6829 10.00097 0.4609133 2.361426 0.9147887 6.438449 -27.53875 6.565126 -0 24.61608 -0 -4.805984 -9.488637 -1.253429 -7.484602 12.27581 -19.6553 -0 7.96822 -0 12.55036 -18.48209 24.01747 -1.811034 -2.107948 4.464106 3.234189 10.16587 -8.062797 1.063439 20.72313 6.655555 2.904379 -26.10588 9.244937 5.218092 -18.67872 11.48259 88.39977 36.2315 -21.82742 -0 0 12.66721 -5.916675 7.247027 4.267437 6.305708 -21.22153 -2.109349 -90.4758 22.03236 19.00808 0 0 -20.93345 12.92627 11.26869 -0.9778436
2.607379 103.1826 13.04118 0.1422631 3.137304 1.277012 6.588541 -30.22798 5.360365 -0 20.50825 -0 -5.473761 -6.549833 -0.6550598 -7.281261 12.50747 -18.38354 -0 8.928905 -0 11.28336 -19.60387 22.32286 -1.801033 -2.117299 4.395127 3.325689 10.12265 -8.17443 1.072236 20.68622 6.678125 2.831242 -26.34265 9.364417 5.20123 -18.60846 11.47088 88.71 36.34263 -22.24705 -0 0 12.38307 -5.674104 7.256557 4.216925 6.266329 -21.24815 -2.045152 -90.32389 22.32699 18.81428 0 0 -21.47945 12.78342 11.20422 -0.679613
2.950703 102.5693 16.63617 -0.2763431 3.918233 1.731935 6.801563 -32.60759 4.120646 -0 16.51422 -0 -6.326699 -3.620012 -0.07159476 -6.965012 12.70601 -16.92429 -0 10.53645 -0 9.959065 -20.16651 20.27669 -1.800665 -2.111371 4.31689 3.401576 10.07633 -8.265121 1.084563 20.66574 6.709094 2.759433 -26.52965 9.486833 5.187838 -18.50629 11.46193 88.98424 36.49149 -22.58952 -0 0 12.06792 -5.553008 7.356552 4.229657 6.220514 -21.2595 -1.983745 -90.11862 22.57738 18.55271 0 0 -22.00414 12.64926 11.15222 -0.4008998
3.282042 101.9441 20.87021 -0.8253204 4.660743 2.274086 7.117625 -34.30699 3.020915 -0 13.17972 -0 -7.379862 -0.9631976 0.4303636 -6.491974 12.84095 -15.42685 -0 13.17622 -0 8.351723 -19.9696 17.88011 -1.811357 -2.08724 4.229233 3.457822 10.02747 -8.330011 1.100051 20.66519 6.749378 2.691001 -26.65317 9.608265 5.179922 -18.36907 11.45671 89.20932 36.68199 -22.83439 -0 0 11.7238 -5.580745 7.56299 4.318601 6.166228 -21.2528 -1.927653 -89.85852 22.77558 18.22226 0 0 -22.48752 12.5176 11.11802 -0.1376167
3.603641 101.4592 25.77839 -1.495953 5.225404 2.870479 7.564993 -34.8246 2.285123 -0 11.22749 -0 -8.60403 1.047205 0.7339891 -5.834105 12.83695 -14.10248 -0 17.27071 -0 6.264556 -18.81488 15.27342 -1.832905 -2.044581 4.137149 3.48911 9.979297 -8.363305 1.117113 20.68674 6.796897 2.631416 -26.69766 9.717789 5.179384 -18.2035 11.45599 89.36457 36.9029 -22.95737 -0 0 11.37287 -5.772013 7.871206 4.486629 6.104704 -21.22744 -1.882357 -89.5615 22.90985 17.84568 0 0 -22.88692 12.38532 11.10772 0.1063005
3.914667 101.2951 31.31712 -2.191789 5.329774 3.438154 8.099388 -33.65887 2.022088 -0 11.18101 -0 -9.946302 2.150807 0.7218454 -5.019403 12.56133 -13.08883 -0 23.23797 -0 3.747909 -16.58281 12.79533 -1.865744 -1.98058 4.045816 3.487425 9.933362 -8.355174 1.133567 20.73677 6.849689 2.588414 -26.63995 9.800058 5.189311 -18.01575 11.46049 89.41786 37.14073 -22.91826 -0 0 11.04096 -6.15625 8.277539 4.745838 6.034553 -21.17886 -1.854602 -89.25577 22.97627 17.45708 0 0 -23.13486 12.23311 11.13497 0.3452889
4.207767 101.6147 37.34051 -2.714176 4.612731 3.837417 8.570058 -30.53422 2.11962 -0 12.95482 -0 -11.31929 2.35787 0.3540783 -4.160442 11.78951 -12.34656 -0 31.27275 -0 1.17553 -13.40887 10.93629 -1.909504 -1.892373 3.963447 3.443222 9.89095 -8.293486 1.146132 20.82329 6.904491 2.572544 -26.45509 9.83423 5.21297 -17.81769 11.47062 89.32815 37.3715 -22.66818 -0 0 10.76576 -6.761703 8.764468 5.108151 5.953808 -21.10067 -1.852492 -88.98774 22.97997 17.1126 0 0 -23.13941 12.02915 11.21736 0.6076974
4.463169 102.5126 43.59543 -2.863498 2.887563 3.927825 8.827919 -25.62335 2.333967 -0 15.68109 -0 -12.57592 1.908621 -0.2588943 -3.405512 10.12414 -11.66162 -0 41.03139 -0 -0.9689635 -9.780141 10.08135 -1.962646 -1.777096 3.9007 3.347024 9.852182 -8.165599 1.150644 20.95489 6.957499 2.595497 -26.12237 9.796979 5.252903 -17.62649 11.4866 89.05192 37.56195 -22.15717 -0 0 10.59188 -7.612742 9.302017 5.585907 5.858312 -20.98417 -1.883735 -88.81849 22.94262 16.88784 0 0 -22.79679 11.72317 11.37371 0.9463757
4.650483 103.9542 49.75407 -2.60006 0.4192893 3.663534 8.855758 -19.60423 2.512037 -0 17.99933 -0 -13.44088 0.9556848 -0.9018221 -2.819605 7.027683 -10.79803 -0 51.22076 -0 -2.442848 -6.448668 10.26855 -2.021661 -1.633658 3.871687 3.191426 9.81636 -7.961073 1.142979 21.13675 7.004449 2.667214 -25.63369 9.667677 5.309014 -17.46653 11.50855 88.5526 37.67086 -21.34588 -0 0 10.57026 -8.718984 9.848872 6.186225 5.742238 -20.81889 -1.953213 -88.81625 22.90147 16.87222 0 0 -22.01582 11.25167 11.61621 1.434982
4.753388 105.7067 55.5273 -2.067279 -2.14543 3.11109 8.714909 -13.42877 2.599099 -0 18.60071 -0 -13.57906 -0.5598698 -1.375818 -2.311614 2.205653 -9.61204 -0 59.4702 -0 -3.24536 -4.144803 11.20764 -2.081537 -1.46362 3.893453 2.972013 9.781882 -7.673376 1.121508 21.36635 7.041422 2.791001 -24.99722 9.437226 5.376549 -17.3665 11.53672 87.8102 37.65917 -20.21387 -0 0 10.75304 -10.07322 10.3689 6.908915 5.599423 -20.5922 -2.059838 -89.0351 22.89706 17.14617 0 0 -20.75631 10.553 11.94074 2.150922
4.803696 107.3616 60.82716 -1.458473 -4.216355 2.380113 8.43269 -7.840905 2.471503 -0 16.85474 -0 -12.90263 -2.616344 -1.559574 -1.685231 -3.90636 -8.048177 -0 63.11916 -0 -3.310749 -3.16412 12.48175 -2.137134 -1.272069 3.982892 2.688577 9.746279 -7.302471 1.090302 21.62935 7.065616 2.957848 -24.23778 9.118372 5.444552 -17.35141 11.57109 86.83331 37.5052 -18.77073 -0 0 11.18186 -11.64865 10.85167 7.742918 5.42729 -20.29136 -2.193838 -89.48424 22.95101 17.74302 0 0 -19.07569 9.597428 12.31728 3.138082
4.879298 108.5251 65.79472 -0.9396061 -5.541588 1.568333 8.035465 -3.014563 2.011996 -0 13.34946 -0 -11.78271 -5.01281 -1.43294 -0.7614172 -10.28289 -6.206433 -0 60.82052 -0 -2.563652 -3.14135 13.73007 -2.184755 -1.067832 4.149843 2.347935 9.707028 -6.859238 1.059799 21.89976 7.076114 3.144659 -23.39535 8.74927 5.497166 -17.43137 11.61065 85.67112 37.21609 -17.07155 -0 0 11.86634 -13.39439 11.31873 8.662857 5.231035 -19.91077 -2.337417 -90.10663 23.05067 18.61506 0 0 -17.14908 8.416439 12.68954 4.370202
5.057698 109.0084 70.63577 -0.6424983 -6.120786 0.7444618 7.59327 1.293166 1.362834 -0 9.651057 -0 -10.75774 -7.691161 -1.129997 0.4862941 -15.97255 -4.425593 -0 53.42384 -0 -1.306778 -3.38607 14.74141 -2.222843 -0.8619284 4.390936 1.965578 9.663813 -6.366947 1.042248 22.14791 7.073916 3.321816 -22.51893 8.380642 5.519096 -17.59621 11.65307 84.40936 36.82252 -15.21792 -0 0 12.76916 -15.23726 11.80234 9.630639 5.023919 -19.46021 -2.471237 -90.79559 23.15529 19.64232 0 0 -15.21535 7.104007 12.99212 5.747272
5.373789 108.8348 75.48323 -0.5994141 -6.123605 -0.04682574 7.135913 5.335241 0.8606194 -0 7.230702 -0 -10.06112 -10.73053 -0.8945697 1.86193 -20.4033 -3.119664 -0 43.19089 -0 -0.1460159 -3.439333 15.48373 -2.251531 -0.6645902 4.689842 1.562984 9.620265 -5.855778 1.045365 22.35194 7.060741 3.46542 -21.65565 8.054008 5.501447 -17.82127 11.69535 83.14581 36.36036 -13.33245 -0 0 13.81493 -17.09457 12.31518 10.60348 4.822304 -18.96503 -2.582385 -91.44301 23.21789 20.68541 0 0 -13.47557 5.782827 13.17585 7.133304
5.815649 108.1406 80.40893 -0.7090514 -5.865387 -0.7781658 6.598267 9.163302 0.7220502 -0 6.686616 -0 -9.578369 -13.88636 -0.8877658 3.023474 -23.29924 -2.531056 -0 32.53187 -0 0.4572905 -3.263945 16.07608 -2.271637 -0.4833619 5.022276 1.163282 9.582877 -5.35573 1.069902 22.50329 7.037591 3.563584 -20.84397 7.79001 5.443354 -18.07771 11.7344 81.96717 35.85712 -11.5305 -0 0 14.91282 -18.88479 12.83876 11.54 4.639908 -18.45876 -2.667001 -91.97725 23.20552 21.6347 0 0 -12.03353 4.563785 13.22163 8.403807
6.347544 107.0969 85.49456 -0.8095652 -5.68005 -1.444678 5.892849 12.64666 0.8921967 -0 7.786112 -0 -9.117619 -16.40099 -1.044492 3.658854 -24.63963 -2.644632 -0 23.32649 -0 0.3988751 -3.087238 16.68485 -2.283975 -0.3229366 5.360709 0.7884795 9.557908 -4.89342 1.111293 22.60462 7.004886 3.615046 -20.11346 7.59122 5.350272 -18.33814 11.76731 80.94097 35.33253 -9.90885 -0 0 15.97321 -20.53252 13.335 12.40189 4.485085 -17.97562 -2.727806 -92.369 23.10942 22.42414 0 0 -10.90825 3.52178 13.13806 9.475912
